<svg id="visual" viewBox="0 0 900 600" width="900" height="600" xmlns="http://www.w3.org/2000/svg" xmlns:xlink="http://www.w3.org/1999/xlink" version="1.1"><path d="M0 393L13.7 390.5C27.3 388 54.7 383 82 380.2C109.3 377.3 136.7 376.7 163.8 378.7C191 380.7 218 385.3 245.2 389.3C272.3 393.3 299.7 396.7 327 388.8C354.3 381 381.7 362 409 358.5C436.3 355 463.7 367 491 366.3C518.3 365.7 545.7 352.3 573 351.5C600.3 350.7 627.7 362.3 654.8 369.2C682 376 709 378 736.2 378.2C763.3 378.3 790.7 376.7 818 377C845.3 377.3 872.7 379.7 886.3 380.8L900 382L900 601L886.3 601C872.7 601 845.3 601 818 601C790.7 601 763.3 601 736.2 601C709 601 682 601 654.8 601C627.7 601 600.3 601 573 601C545.7 601 518.3 601 491 601C463.7 601 436.3 601 409 601C381.7 601 354.3 601 327 601C299.7 601 272.3 601 245.2 601C218 601 191 601 163.8 601C136.7 601 109.3 601 82 601C54.7 601 27.3 601 13.7 601L0 601Z" fill="#c4b5e0"></path><path d="M0 409L13.7 414.8C27.3 420.7 54.7 432.3 82 435.7C109.3 439 136.7 434 163.8 424.5C191 415 218 401 245.2 399.2C272.3 397.3 299.7 407.7 327 414C354.3 420.3 381.7 422.7 409 425C436.3 427.3 463.7 429.7 491 428.8C518.3 428 545.7 424 573 418.5C600.3 413 627.7 406 654.8 400.5C682 395 709 391 736.2 388.8C763.3 386.7 790.7 386.3 818 391.5C845.3 396.7 872.7 407.3 886.3 412.7L900 418L900 601L886.3 601C872.7 601 845.3 601 818 601C790.7 601 763.3 601 736.2 601C709 601 682 601 654.8 601C627.7 601 600.3 601 573 601C545.7 601 518.3 601 491 601C463.7 601 436.3 601 409 601C381.7 601 354.3 601 327 601C299.7 601 272.3 601 245.2 601C218 601 191 601 163.8 601C136.7 601 109.3 601 82 601C54.7 601 27.3 601 13.7 601L0 601Z" fill="#b9a7d8"></path><path d="M0 439L13.7 440.7C27.3 442.3 54.7 445.7 82 453.3C109.3 461 136.7 473 163.8 472.8C191 472.7 218 460.3 245.2 456.8C272.3 453.3 299.7 458.7 327 462.5C354.3 466.3 381.7 468.7 409 467.8C436.3 467 463.7 463 491 461C518.3 459 545.7 459 573 459.7C600.3 460.3 627.7 461.7 654.8 464.2C682 466.7 709 470.3 736.2 474.2C763.3 478 790.7 482 818 480.7C845.3 479.3 872.7 472.7 886.3 469.3L900 466L900 601L886.3 601C872.7 601 845.3 601 818 601C790.7 601 763.3 601 736.2 601C709 601 682 601 654.8 601C627.7 601 600.3 601 573 601C545.7 601 518.3 601 491 601C463.7 601 436.3 601 409 601C381.7 601 354.3 601 327 601C299.7 601 272.3 601 245.2 601C218 601 191 601 163.8 601C136.7 601 109.3 601 82 601C54.7 601 27.3 601 13.7 601L0 601Z" fill="#af99cf"></path><path d="M0 500L13.7 499.5C27.3 499 54.7 498 82 494.2C109.3 490.3 136.7 483.7 163.8 485.7C191 487.7 218 498.3 245.2 505.2C272.3 512 299.7 515 327 518.3C354.3 521.7 381.7 525.3 409 524.3C436.3 523.3 463.7 517.7 491 515C518.3 512.3 545.7 512.7 573 513C600.3 513.3 627.7 513.7 654.8 510C682 506.3 709 498.7 736.2 499.3C763.3 500 790.7 509 818 514.3C845.3 519.7 872.7 521.3 886.3 522.2L900 523L900 601L886.3 601C872.7 601 845.3 601 818 601C790.7 601 763.3 601 736.2 601C709 601 682 601 654.8 601C627.7 601 600.3 601 573 601C545.7 601 518.3 601 491 601C463.7 601 436.3 601 409 601C381.7 601 354.3 601 327 601C299.7 601 272.3 601 245.2 601C218 601 191 601 163.8 601C136.7 601 109.3 601 82 601C54.7 601 27.3 601 13.7 601L0 601Z" fill="#a58bc6"></path><path d="M0 531L13.7 534.7C27.3 538.3 54.7 545.7 82 548.7C109.3 551.7 136.7 550.3 163.8 548.5C191 546.7 218 544.3 245.2 546C272.3 547.7 299.7 553.3 327 556.5C354.3 559.7 381.7 560.3 409 556.3C436.3 552.3 463.7 543.7 491 539.2C518.3 534.7 545.7 534.3 573 537.5C600.3 540.7 627.7 547.3 654.8 553.8C682 560.3 709 566.7 736.2 569.2C763.3 571.7 790.7 570.3 818 562.3C845.3 554.3 872.7 539.7 886.3 532.3L900 525L900 601L886.3 601C872.7 601 845.3 601 818 601C790.7 601 763.3 601 736.2 601C709 601 682 601 654.8 601C627.7 601 600.3 601 573 601C545.7 601 518.3 601 491 601C463.7 601 436.3 601 409 601C381.7 601 354.3 601 327 601C299.7 601 272.3 601 245.2 601C218 601 191 601 163.8 601C136.7 601 109.3 601 82 601C54.7 601 27.3 601 13.7 601L0 601Z" fill="#9b7ebd"></path></svg>